<?xml version="1.0" encoding="UTF-8"?>
<svg width="100px" height="100px" viewBox="0 0 100 100" version="1.1" xmlns="http://www.w3.org/2000/svg" xmlns:xlink="http://www.w3.org/1999/xlink">
    <!-- Generator: Sketch 56 (81588) - https://sketch.com -->
    <title>favicon-logo-rafa</title>
    <desc>Created with Sketch.</desc>
    <g id="favicon-logo-rafa" stroke="none" stroke-width="1" fill="none" fill-rule="evenodd">
        <g id="Group" transform="translate(19.000000, 24.000000)">
            <path d="M1.42108547e-14,0.5793103 C1.41609893,0.418389968 2.74367176,0.281609737 3.98275832,0.168965504 C5.22184488,0.0563212715 6.59769308,3.55271368e-15 8.11034421,3.55271368e-15 C9.88046786,3.55271368e-15 11.6264273,0.160917919 13.3482748,0.482758584 C15.0701224,0.804599249 16.6229803,1.37585786 18.0068952,2.19655156 C19.39081,3.01724525 20.5091896,4.12757889 21.3620673,5.52758578 C22.2149451,6.92759268 22.6413776,8.70573568 22.6413776,10.8620681 C22.6413776,12.1494308 22.4804597,13.2839021 22.158619,14.2655161 C21.8367783,15.2471302 21.4264376,16.108041 20.9275846,16.8482746 C20.4287316,17.5885081 19.8896565,18.2241339 19.3103433,18.755171 C18.7310302,19.2862081 18.1839092,19.7126406 17.6689642,20.0344812 L16.8482746,20.5655157 L25.2965498,35.2413766 C24.6528685,35.3057447 23.9770132,35.3701119 23.2689637,35.43448 C22.5609143,35.4988482 21.8367836,35.5310318 21.0965501,35.5310318 C19.8735556,35.5310318 18.6666712,35.434481 17.4758607,35.2413766 L8.39999936,19.1172399 L9.55861996,18.5379296 C10.0091969,18.3126411 10.5563178,18.0229889 11.1999991,17.6689642 C11.8436805,17.3149394 12.4632145,16.8724152 13.0586197,16.3413781 C13.6540249,15.810341 14.1609164,15.1666693 14.5793092,14.4103437 C14.9977021,13.6540182 15.2068954,12.7609237 15.2068954,11.7310336 C15.2068954,9.70343739 14.6275909,8.21494665 13.4689645,7.26551668 C12.3103381,6.31608672 10.8138014,5.84137886 8.97930966,5.84137886 C8.27126019,5.84137886 7.62758852,5.88965424 7.04827532,5.98620644 L7.04827532,35.2896525 C6.46896212,35.3540206 5.88965762,35.4103419 5.31034442,35.458618 C4.73103122,35.5068941 4.16781851,35.5310318 3.62068938,35.5310318 C3.07356025,35.5310318 2.49425574,35.51494 1.88275848,35.4827559 C1.27126121,35.4505718 0.64368133,35.3862047 1.42108547e-14,35.2896525 L1.42108547e-14,0.5793103 Z M30.9931011,0.5793103 C31.3793099,0.514942167 31.8218341,0.466666792 32.3206872,0.434482725 C32.8195402,0.402298659 33.2942481,0.386206867 33.744825,0.386206867 C34.1954019,0.386206867 34.6862016,0.402298659 35.2172387,0.434482725 C35.7482758,0.466666792 36.1908001,0.514942167 36.5448248,0.5793103 L45.5241344,22.3034466 L54.55172,0.5793103 C54.8735606,0.514942167 55.2758554,0.466666792 55.7586164,0.434482725 C56.2413774,0.402298659 56.7080394,0.386206867 57.1586163,0.386206867 C57.5770092,0.386206867 58.0436711,0.402298659 58.5586162,0.434482725 C59.0735613,0.466666792 59.5080396,0.514942167 59.8620644,0.5793103 L61.5034436,35.2896525 C61.1172348,35.3540206 60.7229859,35.402296 60.320685,35.43448 C59.9183842,35.4666641 59.5080435,35.4827559 59.0896506,35.4827559 C58.6712578,35.4827559 58.2609171,35.4666641 57.8586163,35.43448 C57.4563154,35.402296 57.0781583,35.3540206 56.7241336,35.2896525 L55.6137888,8.30344764 L47.1172378,28.0965496 C46.4735564,28.1931018 45.813793,28.2413771 45.1379276,28.2413771 C44.5264303,28.2413771 43.9149422,28.1931018 43.303445,28.0965496 L35.096549,8.15862006 L33.9862043,35.2896525 C33.6321796,35.3540206 33.2620683,35.402296 32.8758595,35.43448 C32.4896508,35.4666641 32.1195395,35.4827559 31.7655148,35.4827559 C31.3471219,35.4827559 30.9448271,35.4666641 30.5586183,35.43448 C30.1724095,35.402296 29.8022983,35.3540206 29.4482736,35.2896525 L30.9931011,0.5793103 Z" id="RM" fill="#202024" fill-rule="nonzero"></path>
            <g id="Group-3" transform="translate(0.000000, 47.000000)">
                <g id="Group-2">
                    <ellipse id="Oval" fill="#FF8A31" cx="3.0300885" cy="3" rx="3.0300885" ry="3"></ellipse>
                    <rect id="Rectangle" fill="#A52065" x="40.339823" y="0" width="21.2106195" height="6" rx="3"></rect>
                    <rect id="Rectangle" fill="#DB2875" x="10.4831858" y="0" width="39.6" height="6" rx="3"></rect>
                </g>
            </g>
        </g>
    </g>
</svg>